<?xml version="1.0" encoding="utf-8"?>
<!-- Generator: Adobe Illustrator 27.0.0, SVG Export Plug-In . SVG Version: 6.00 Build 0)  -->
<svg version="1.1" id="Layer_1" xmlns="http://www.w3.org/2000/svg" xmlns:xlink="http://www.w3.org/1999/xlink" x="0px" y="0px"
	 viewBox="0 0 612 792" style="enable-background:new 0 0 612 792;" xml:space="preserve">
<style type="text/css">
	.st0{display:none;}
	.st1{display:inline;fill:#8338EC;}
	.st2{font-family:'Poppins-Black';}
	.st3{font-size:12px;}
	.st4{display:inline;fill:none;stroke:#8338EC;stroke-width:0.5;stroke-miterlimit:10;}
	.st5{display:inline;}
	.st6{fill:#8338EC;}
	.st7{fill:#FFFFFF;}
</style>
<g class="st0">
	<text transform="matrix(1 0 0 1 70.1046 178.1623)" class="st1 st2 st3">melolink</text>
	<circle class="st4" cx="23.29" cy="111.85" r="0.64"/>
	<circle class="st4" cx="29.23" cy="111.85" r="0.64"/>
	<circle class="st4" cx="32.21" cy="116.78" r="0.64"/>
	<circle class="st4" cx="38.15" cy="116.78" r="0.64"/>
	<circle class="st4" cx="44.1" cy="116.78" r="0.64"/>
	<circle class="st4" cx="50.05" cy="116.78" r="0.64"/>
	<circle class="st4" cx="26.26" cy="116.78" r="0.64"/>
	<circle class="st4" cx="32.21" cy="106.98" r="0.64"/>
	<circle class="st4" cx="38.15" cy="106.98" r="0.64"/>
	<circle class="st4" cx="44.1" cy="106.98" r="0.64"/>
	<circle class="st4" cx="50.05" cy="106.98" r="0.64"/>
	<circle class="st4" cx="26.26" cy="106.98" r="0.64"/>
	<circle class="st4" cx="35.18" cy="111.85" r="0.64"/>
	<circle class="st4" cx="41.13" cy="111.85" r="0.64"/>
	<circle class="st4" cx="47.07" cy="111.85" r="0.64"/>
	<circle class="st4" cx="53.02" cy="111.85" r="0.64"/>
	<g class="st5">
		<path class="st6" d="M106.88,139.85c-0.15,0.08-0.29,0.18-0.43,0.36c3.09,3.13,3.89,3.86,4.77,3.85c0.34-0.02,0.69-0.13,1.05-0.33
			c0.07-0.04,0.14-0.06,0.21-0.06c-0.05-0.84-0.17-1.66-0.34-2.46c-0.09,0.02-0.19,0.02-0.29-0.02
			C109.64,140.27,107.59,139.49,106.88,139.85z"/>
		<path class="st6" d="M82,138.68c0.51,0.48,1.1,1.07,1.81,1.79l1.12,1.13c3.3,3.33,3.94,3.95,4.78,3.89
			c0.77-0.05,1.52-0.75,4.68-5.08c0.48-0.65,0.89-1.23,1.26-1.74c2.1-2.92,2.74-3.8,4-3.89c1.34-0.1,2.85,1.42,6.09,4.72
			c0.19-0.22,0.41-0.4,0.68-0.54c0.96-0.49,2.49-0.04,5.43,1.15c-1.96-6.58-8.05-11.4-15.28-11.4c-6.65,0-12.35,4.09-14.74,9.87
			C81.9,138.6,81.96,138.63,82,138.68z"/>
		<path class="st6" d="M87.39,148.76c1.2-0.6,2.32-0.18,7.41,1.92l0.61,0.25c4.39,1.81,5.24,2.14,6,1.76
			c0.7-0.34,1.11-1.28,2.33-6.5c0.2-0.85,0.37-1.59,0.52-2.24c0.41-1.76,0.66-2.84,0.95-3.57l-0.04-0.04
			c-2.75-2.79-4.54-4.62-5.46-4.58c-0.77,0.06-1.27,0.71-3.27,3.48c-0.37,0.51-0.79,1.09-1.27,1.75c-3.32,4.54-4.18,5.41-5.42,5.48
			c-0.07,0-0.14,0.01-0.2,0.01c-1.2,0-2.03-0.84-5.36-4.19l-1.12-1.12c-0.63-0.63-1.15-1.15-1.62-1.6c-0.54,1.6-0.85,3.31-0.85,5.09
			c0,4.06,1.53,7.74,4.02,10.56C85.87,150.51,86.24,149.34,87.39,148.76z"/>
		<path class="st6" d="M111.27,145.06c-1.33,0.06-2.15-0.73-5.26-3.88c-0.22,0.68-0.44,1.64-0.76,3c-0.15,0.65-0.32,1.39-0.52,2.24
			c-1.29,5.47-1.74,6.61-2.86,7.16c-1.19,0.59-2.16,0.19-6.83-1.73l-0.61-0.25c-4.81-1.98-5.81-2.33-6.58-1.95
			c-0.75,0.38-1.08,1.43-2.3,6.15c-0.02,0.09-0.08,0.15-0.14,0.21c2.88,2.84,6.81,4.6,11.18,4.6c8.8,0,15.93-7.12,15.95-15.91
			C112.12,144.9,111.7,145.04,111.27,145.06z"/>
	</g>
</g>
<g>
	<path class="st7" d="M236.64,562.61h-7.55v-16.57c0-2.37-0.4-4.09-1.21-5.18c-0.81-1.09-1.93-1.63-3.36-1.63
		c-1.5,0-2.91,0.57-4.22,1.72c-1.32,1.15-2.25,2.64-2.82,4.48v17.18h-7.55v-16.57c0-2.37-0.41-4.09-1.21-5.18
		c-0.81-1.09-1.92-1.63-3.35-1.63c-1.46,0-2.87,0.56-4.2,1.69c-1.33,1.13-2.28,2.61-2.84,4.45v17.24h-7.55v-29.52h6.82v5.47
		c1.09-1.92,2.58-3.39,4.48-4.43c1.9-1.03,4.07-1.55,6.51-1.55c2.48,0,4.39,0.6,5.75,1.8s2.22,2.69,2.59,4.45
		c1.2-2.03,2.72-3.57,4.56-4.65c1.84-1.07,3.94-1.61,6.31-1.61c1.81,0,3.29,0.34,4.45,1.01c1.16,0.68,2.06,1.56,2.7,2.65
		c0.64,1.09,1.08,2.33,1.32,3.72c0.25,1.39,0.37,2.8,0.37,4.23V562.61z"/>
	<path class="st7" d="M258.05,563.18c-2.37,0-4.51-0.41-6.42-1.21c-1.92-0.81-3.55-1.9-4.9-3.3c-1.35-1.39-2.4-3.01-3.13-4.85
		c-0.73-1.84-1.1-3.77-1.1-5.8c0-2.1,0.35-4.08,1.07-5.94c0.71-1.86,1.75-3.49,3.1-4.9c1.35-1.41,2.99-2.52,4.93-3.35
		c1.93-0.83,4.1-1.24,6.5-1.24c2.41,0,4.56,0.41,6.45,1.24c1.9,0.83,3.51,1.94,4.85,3.32c1.33,1.39,2.35,3.01,3.04,4.85
		c0.7,1.84,1.04,3.76,1.04,5.75c0,0.49-0.01,0.96-0.03,1.41c-0.02,0.45-0.06,0.83-0.14,1.13H250.5c0.12,1.16,0.39,2.2,0.85,3.1
		c0.45,0.9,1.03,1.67,1.75,2.31c0.71,0.64,1.52,1.13,2.43,1.46c0.9,0.34,1.84,0.51,2.81,0.51c1.5,0,2.92-0.37,4.25-1.1
		c1.33-0.74,2.25-1.7,2.73-2.9l6.48,1.8c-1.09,2.25-2.83,4.11-5.21,5.55C264.2,562.45,261.36,563.18,258.05,563.18z M265.72,545.37
		c-0.19-2.21-1.01-3.99-2.45-5.32c-1.45-1.33-3.2-2-5.27-2c-1.01,0-1.96,0.18-2.85,0.54c-0.88,0.36-1.66,0.85-2.34,1.49
		c-0.68,0.64-1.23,1.41-1.66,2.31c-0.43,0.9-0.68,1.9-0.76,2.99H265.72z"/>
	<path class="st7" d="M276.93,521.48h7.55v31.66c0,1.09,0.26,1.94,0.79,2.54c0.52,0.6,1.28,0.9,2.25,0.9c0.45,0,0.95-0.08,1.49-0.23
		c0.54-0.15,1.06-0.34,1.55-0.56l1.01,5.75c-1.01,0.49-2.2,0.86-3.55,1.13c-1.35,0.26-2.57,0.39-3.66,0.39
		c-2.37,0-4.2-0.63-5.49-1.88c-1.3-1.26-1.94-3.05-1.94-5.38V521.48z"/>
	<path class="st7" d="M307.35,563.18c-2.41,0-4.56-0.41-6.48-1.24c-1.92-0.83-3.54-1.94-4.87-3.35c-1.33-1.41-2.36-3.03-3.07-4.87
		c-0.72-1.84-1.07-3.78-1.07-5.8c0-2.06,0.35-4.02,1.07-5.86c0.71-1.84,1.74-3.46,3.07-4.87c1.34-1.41,2.96-2.52,4.87-3.35
		c1.92-0.83,4.08-1.24,6.48-1.24s4.56,0.41,6.45,1.24s3.51,1.94,4.85,3.35c1.33,1.41,2.35,3.03,3.07,4.87
		c0.71,1.84,1.07,3.8,1.07,5.86c0,2.03-0.36,3.96-1.07,5.8c-0.72,1.84-1.73,3.46-3.04,4.87c-1.32,1.41-2.93,2.52-4.85,3.35
		C311.92,562.76,309.76,563.18,307.35,563.18z M299.64,547.91c0,1.32,0.19,2.51,0.59,3.58c0.4,1.07,0.94,2,1.63,2.79
		c0.7,0.79,1.51,1.4,2.45,1.83c0.94,0.43,1.95,0.65,3.04,0.65c1.09,0,2.1-0.21,3.04-0.65c0.94-0.43,1.76-1.04,2.45-1.83
		c0.7-0.79,1.24-1.73,1.63-2.82c0.39-1.09,0.59-2.29,0.59-3.61c0-1.28-0.2-2.46-0.59-3.55c-0.39-1.09-0.94-2.03-1.63-2.81
		c-0.7-0.79-1.51-1.4-2.45-1.83s-1.95-0.65-3.04-0.65c-1.09,0-2.1,0.23-3.04,0.68s-1.76,1.07-2.45,1.86
		c-0.7,0.79-1.24,1.73-1.63,2.81C299.83,545.45,299.64,546.63,299.64,547.91z"/>
	<path class="st7" d="M325.55,521.48h7.55v31.66c0,1.09,0.26,1.94,0.79,2.54c0.52,0.6,1.28,0.9,2.25,0.9c0.45,0,0.95-0.08,1.49-0.23
		s1.06-0.34,1.55-0.56l1.01,5.75c-1.01,0.49-2.2,0.86-3.55,1.13c-1.35,0.26-2.57,0.39-3.66,0.39c-2.37,0-4.2-0.63-5.49-1.88
		c-1.3-1.26-1.94-3.05-1.94-5.38V521.48z"/>
	<path class="st7" d="M343.47,528.97v-7.49h7.55v7.49H343.47z M343.47,562.61v-29.52h7.55v29.52H343.47z"/>
	<path class="st7" d="M386.4,562.61h-7.55v-16.57c0-2.37-0.41-4.09-1.24-5.18c-0.83-1.09-1.97-1.63-3.44-1.63
		c-0.75,0-1.52,0.15-2.31,0.45c-0.79,0.3-1.53,0.72-2.23,1.27c-0.7,0.54-1.32,1.19-1.89,1.94c-0.56,0.75-0.98,1.58-1.24,2.48v17.24
		h-7.55v-29.52h6.82v5.47c1.09-1.88,2.67-3.34,4.74-4.4c2.06-1.05,4.39-1.58,6.99-1.58c1.84,0,3.34,0.34,4.51,1.01
		c1.16,0.68,2.06,1.56,2.7,2.65c0.64,1.09,1.08,2.33,1.32,3.72c0.24,1.39,0.37,2.8,0.37,4.23V562.61z"/>
	<path class="st7" d="M413.17,562.61l-8.56-12.79l-4.06,4v8.79h-7.55v-41.13h7.55v24.96l11.83-13.3h8.05l-10.99,12.51l11.78,16.96
		H413.17z"/>
</g>
<g>
	<path class="st7" d="M389.84,323.64c-1.26,0.63-2.37,1.47-3.47,2.93c25.14,25.47,31.66,31.45,38.86,31.38
		c2.79-0.16,5.61-1.05,8.55-2.72c0.53-0.31,1.11-0.45,1.68-0.5c-0.4-6.87-1.35-13.55-2.79-20.05c-0.76,0.15-1.55,0.16-2.32-0.16
		C412.3,327.12,395.63,320.73,389.84,323.64z"/>
	<path class="st7" d="M187.25,314.13c4.13,3.94,8.93,8.75,14.71,14.54l9.13,9.17c26.84,27.08,32.06,32.18,38.94,31.68
		c6.29-0.38,12.36-6.13,38.12-41.33c3.88-5.31,7.28-10.02,10.28-14.18c17.14-23.76,22.31-30.93,32.61-31.69
		c10.89-0.81,23.19,11.56,49.62,38.41c1.56-1.82,3.34-3.27,5.52-4.37c7.84-3.98,20.26-0.33,44.22,9.4
		c-15.94-53.62-65.56-92.8-124.39-92.8c-54.18,0-100.55,33.27-120,80.38C186.45,313.53,186.88,313.78,187.25,314.13z"/>
	<path class="st7" d="M231.15,396.24c9.76-4.93,18.89-1.48,60.37,15.59l4.99,2.06c35.76,14.72,42.69,17.41,48.89,14.34
		c5.67-2.8,9.03-10.46,19.01-52.89c1.65-6.91,3.04-12.94,4.26-18.21c3.31-14.33,5.34-23.1,7.75-29.09l-0.33-0.34
		c-22.4-22.75-36.99-37.64-44.46-37.25c-6.27,0.46-10.34,5.8-26.59,28.33c-3.01,4.17-6.42,8.9-10.31,14.23
		c-27.04,36.95-34.05,44.04-44.16,44.65c-0.56,0.04-1.11,0.06-1.65,0.06c-9.77,0-16.52-6.81-43.61-34.14l-9.11-9.15
		c-5.12-5.14-9.38-9.38-13.17-13.04c-4.4,13.04-6.9,26.92-6.9,41.45c0,33.07,12.49,63.04,32.75,86
		C218.78,410.48,221.73,400.95,231.15,396.24z"/>
	<path class="st7" d="M425.6,366.08c-10.82,0.46-17.51-5.9-42.84-31.58c-1.77,5.5-3.6,13.39-6.15,24.46
		c-1.22,5.29-2.62,11.34-4.27,18.26c-10.48,44.53-14.18,53.8-23.33,58.32c-9.67,4.8-17.57,1.54-55.6-14.11l-4.99-2.06
		c-39.13-16.11-47.35-18.99-53.61-15.85c-6.13,3.07-8.83,11.61-18.74,50.06c-0.18,0.69-0.65,1.19-1.11,1.68
		c23.42,23.12,55.49,37.45,91.05,37.45c71.63,0,129.68-57.96,129.86-129.55C432.48,364.8,429.04,365.89,425.6,366.08z"/>
</g>
</svg>
